<svg viewBox="0 0 544 512" xmlns="http://www.w3.org/2000/svg" xmlns:xlink="http://www.w3.org/1999/xlink" id="Layer_1" overflow="hidden"><style>
.MsftOfcThm_Accent2_Fill_v2 {
 fill:#FF5A47; 
}
</style>
<path d="M64 64C64 28.7 92.7 0 128 0L416 0C451.3 0 480 28.7 480 64L480 112 416 112 416 64 128 64 128 256 272 256 272 352 76.8 352C34.4 352 0 317.6 0 275.2 0 264.6 8.6 256 19.2 256L64 256 64 64ZM320 224C320 188.7 348.7 160 384 160L480 160C515.3 160 544 188.7 544 224L544 448C544 483.3 515.3 512 480 512L384 512C348.7 512 320 483.3 320 448L320 224ZM408 400C394.7 400 384 410.7 384 424 384 437.3 394.7 448 408 448L456 448C469.3 448 480 437.3 480 424 480 410.7 469.3 400 456 400L408 400Z" class="MsftOfcThm_Accent2_Fill_v2" fill="#FF5A47"/></svg>