<svg viewBox="0 0 576 544" xmlns="http://www.w3.org/2000/svg" xmlns:xlink="http://www.w3.org/1999/xlink" id="Layer_1" overflow="hidden"><style>
.MsftOfcThm_Accent2_Fill_v2 {
 fill:#FF5A47; 
}
</style>
<path d="M400 0C382.3 0 368 14.3 368 32 368 49.7 382.3 64 400 64L428.8 64 319.4 151.5 211.2 70.4C199.5 61.6 183.4 61.9 172 71L12 199C-1.8 210-4 230.2 7 244 18 257.8 38.2 260 52 249L192.6 136.5 300.8 217.6C312.5 226.4 328.6 226.1 340 217L480 105 480 144C480 161.7 494.3 176 512 176 529.7 176 544 161.7 544 144L544 32C544 14.3 529.7 0 512 0L400 0ZM192 224C174.3 224 160 238.3 160 256L160 448C160 465.7 174.3 480 192 480 209.7 480 224 465.7 224 448L224 256C224 238.3 209.7 224 192 224ZM64 320C46.3 320 32 334.3 32 352L32 448C32 465.7 46.3 480 64 480 81.7 480 96 465.7 96 448L96 352C96 334.3 81.7 320 64 320ZM432 544C511.53 544 576 479.53 576 400 576 320.47 511.53 256 432 256 352.47 256 288 320.47 288 400 288 479.53 352.47 544 432 544ZM432 304C440.8 304 448 311.2 448 320L448 328 464 328C472.8 328 480 335.2 480 344 480 352.8 472.8 360 464 360L418.2 360C412.6 360 408 364.6 408 370.2 408 375.1 411.5 379.3 416.3 380.2L461.3 388.4C481.3 392 495.9 409.5 495.9 429.9 495.9 453.2 477 472.1 453.7 472.1L447.9 472.1 447.9 480.1C447.9 488.9 440.7 496.1 431.9 496.1 423.1 496.1 415.9 488.9 415.9 480.1L415.9 472.1 399.9 472.1C391.1 472.1 383.9 464.9 383.9 456.1 383.9 447.3 391.1 440.1 399.9 440.1L453.7 440.1C459.3 440.1 463.9 435.5 463.9 429.9 463.9 425 460.4 420.8 455.6 419.9L410.6 411.7C390.6 408.1 376 390.6 376 370.2 376 347.6 393.7 329.2 416 328.1L416 320C416 311.2 423.2 304 432 304Z" class="MsftOfcThm_Accent2_Fill_v2" fill="#FF5A47"/></svg>