<svg viewBox="0 0 448 512" xmlns="http://www.w3.org/2000/svg" xmlns:xlink="http://www.w3.org/1999/xlink" id="Layer_1" overflow="hidden"><style>
.MsftOfcThm_Accent2_Fill_v2 {
 fill:#FF5A47; 
}
</style>
<path d="M288 0 128 0C110.3 0 96 14.3 96 32 96 49.7 110.3 64 128 64L128 215.5 7.5 426.3C2.6 435 0 444.7 0 454.7 0 486.4 25.6 512 57.3 512L390.7 512C422.3 512 448 486.4 448 454.7 448 444.7 445.4 434.9 440.5 426.3L320 215.5 320 64C337.7 64 352 49.7 352 32 352 14.3 337.7 0 320 0L288 0ZM192 215.5 192 64 256 64 256 215.5C256 226.6 258.9 237.6 264.4 247.3L306 320 142 320 183.6 247.3C189.1 237.6 192 226.7 192 215.5Z" class="MsftOfcThm_Accent2_Fill_v2" fill="#FF5A47"/></svg>