<svg viewBox="0 0 512 448" xmlns="http://www.w3.org/2000/svg" xmlns:xlink="http://www.w3.org/1999/xlink" id="Layer_1" overflow="hidden"><style>
.MsftOfcThm_Accent2_Fill_v2 {
 fill:#FF5A47; 
}
</style>
<path d="M0 32C0 14.3 14.3 0 32 0L96 0C113.7 0 128 14.3 128 32L128 183.4 284.6 99.1C300.6 90.5 320 102.1 320 120.2L320 183.4 476.6 99.1C492.6 90.5 512 102.1 512 120.2L512 400C512 426.5 490.5 448 464 448L48 448C21.5 448 0 426.5 0 400L0 32ZM240 288C231.2 288 224 295.2 224 304L224 336C224 344.8 231.2 352 240 352L272 352C280.8 352 288 344.8 288 336L288 304C288 295.2 280.8 288 272 288L240 288ZM96 304 96 336C96 344.8 103.2 352 112 352L144 352C152.8 352 160 344.8 160 336L160 304C160 295.2 152.8 288 144 288L112 288C103.2 288 96 295.2 96 304ZM368 288C359.2 288 352 295.2 352 304L352 336C352 344.8 359.2 352 368 352L400 352C408.8 352 416 344.8 416 336L416 304C416 295.2 408.8 288 400 288L368 288Z" class="MsftOfcThm_Accent2_Fill_v2" fill="#FF5A47"/></svg>