<svg viewBox="0 0 559.91 504.05" xmlns="http://www.w3.org/2000/svg" xmlns:xlink="http://www.w3.org/1999/xlink" id="Layer_1" overflow="hidden"><style>
.MsftOfcThm_Accent2_Fill_v2 {
 fill:#FF5A47; 
}
</style>
<path d="M208 239.9C228.9 239.9 248.5 234.6 265.7 225.2 276.4 213 288.9 202.3 302.8 193.6 318.6 173.3 328 147.7 328 120 328 53.7 274.3 0 208 0 141.7 0 88 53.6 88 119.9 88 186.2 141.7 239.9 208 239.9ZM178.3 295.9C79.8 295.9 0 375.7 0 474.2 0 490.6 13.3 503.9 29.7 503.9L388 503.9C297.1 501.8 224 427.4 224 335.9 224 322.1 225.7 308.7 228.8 295.9L178.3 295.9ZM392 264C431.76 264 464 296.24 464 336 464 375.76 431.76 408 392 408 352.24 408 320 375.76 320 336 320 296.24 352.24 264 392 264ZM392 456C416.5 456 439.2 448.7 458.2 436.1L519 497C528.4 506.4 543.6 506.4 552.9 497 562.2 487.6 562.3 472.4 552.9 463.1L492.1 402.2C504.7 383.2 512 360.5 512 336 512 269.7 458.3 216 392 216 325.7 216 272 269.7 272 336 272 402.3 325.7 456 392 456L392 456Z" class="MsftOfcThm_Accent2_Fill_v2" fill="#FF5A47"/></svg>