<svg viewBox="0 0 511.9 512.1" xmlns="http://www.w3.org/2000/svg" xmlns:xlink="http://www.w3.org/1999/xlink" id="Layer_1" overflow="hidden"><style>
.MsftOfcThm_Accent2_Fill_v2 {
 fill:#FF5A47; 
}
</style>
<path d="M231.9 0C386.5 0 511.9 125.4 511.9 280 511.9 293.3 501.2 304 487.9 304 474.6 304 463.9 293.3 463.9 280 463.9 151.9 360 48 231.9 48 218.6 48 207.9 37.3 207.9 24 207.9 10.7 218.6 0 231.9 0ZM207.9 120C207.9 106.7 218.6 96 231.9 96 333.5 96 415.9 178.4 415.9 280 415.9 293.3 405.2 304 391.9 304 378.6 304 367.9 293.3 367.9 280 367.9 204.9 307 144 231.9 144 218.6 144 207.9 133.3 207.9 120ZM26.3 142.7C35.1 124.8 58.7 122.8 72.8 136.9L201.3 265.4 233.3 233.4C245.8 220.9 266.1 220.9 278.6 233.4 291.1 245.9 291.1 266.2 278.6 278.7L246.6 310.7 375.1 439.2C389.2 453.3 387.1 476.8 369.3 485.7 335.1 502.6 296.7 512.1 256 512.1 114.6 512.1 0 397.5 0 256.1 0 215.4 9.5 176.9 26.4 142.8L26.3 142.7Z" class="MsftOfcThm_Accent2_Fill_v2" fill="#FF5A47"/></svg>