<svg viewBox="0 0 528 512" xmlns="http://www.w3.org/2000/svg" xmlns:xlink="http://www.w3.org/1999/xlink" id="Isolation_Mode" overflow="hidden"><style>
.MsftOfcThm_Accent2_Fill_v2 {
 fill:#FF5A47; 
}
</style>
<path d="M422.2 160 383.9 160C366.2 160 351.9 174.3 351.9 192 351.9 209.7 366.2 224 383.9 224L469.9 224C470.4 224 470.9 224 471.4 224L496 224C513.7 224 528 209.7 528 192L528 80C528 62.3 513.7 48 496 48 478.3 48 464 62.3 464 80L464 106.7C417.5 42.1 341.7 0 256 0 114.6 0 0 114.6 0 256 0 397.4 114.6 512 256 512 343 512 419.9 468.6 466.1 402.4 476.2 387.9 472.7 367.9 458.2 357.8 443.7 347.7 423.7 351.2 413.6 365.7 378.9 415.5 321.2 448 256 448 150 448 64 362 64 256 64 150 150 64 256 64 327 64 389.1 102.6 422.2 160ZM266 152C266 138.7 255.3 128 242 128 228.7 128 218 138.7 218 152L218 256C218 262.4 220.5 268.5 225 273L297 345C306.4 354.4 321.6 354.4 330.9 345 340.2 335.6 340.3 320.4 330.9 311.1L265.9 246.1 265.9 152 266 152Z" class="MsftOfcThm_Accent2_Fill_v2" fill="#FF5A47"/></svg>