<svg viewBox="0 0 569.46 528" xmlns="http://www.w3.org/2000/svg" xmlns:xlink="http://www.w3.org/1999/xlink" id="Layer_1" overflow="hidden"><style>
.MsftOfcThm_Accent2_Fill_v2 {
 fill:#FF5A47; 
}
</style>
<path d="M24 0C10.7 0 0 10.7 0 24 0 37.3 10.7 48 24 48L69.3 48C73.2 48 76.5 50.8 77.2 54.6L129.3 340.9C135.5 375.1 165.3 400 200.1 400L456 400C469.3 400 480 389.3 480 376 480 362.7 469.3 352 456 352L200.1 352C188.5 352 178.6 343.7 176.5 332.3L171.4 304 475 304C505.8 304 532.2 282.1 537.9 251.8L568.9 85.9C572.6 66.2 557.5 48 537.4 48L124.7 48 124.3 46C119.5 19.4 96.3 0 69.2 0L24 0ZM208 528C234.51 528 256 506.51 256 480 256 453.49 234.51 432 208 432 181.49 432 160 453.49 160 480 160 506.51 181.49 528 208 528ZM432 528C458.51 528 480 506.51 480 480 480 453.49 458.51 432 432 432 405.49 432 384 453.49 384 480 384 506.51 405.49 528 432 528Z" class="MsftOfcThm_Accent2_Fill_v2" fill="#FF5A47"/></svg>