<svg viewBox="0 0 512 512" xmlns="http://www.w3.org/2000/svg" xmlns:xlink="http://www.w3.org/1999/xlink" id="Layer_1" overflow="hidden"><style>
.MsftOfcThm_Accent2_Fill_v2 {
 fill:#FF5A47; 
}
</style>
<path d="M176 24C176 10.7 165.3 0 152 0 138.7 0 128 10.7 128 24L128 64C92.7 64 64 92.7 64 128L24 128C10.7 128 0 138.7 0 152 0 165.3 10.7 176 24 176L64 176 64 232 24 232C10.7 232 0 242.7 0 256 0 269.3 10.7 280 24 280L64 280 64 336 24 336C10.7 336 0 346.7 0 360 0 373.3 10.7 384 24 384L64 384C64 419.3 92.7 448 128 448L128 488C128 501.3 138.7 512 152 512 165.3 512 176 501.3 176 488L176 448 232 448 232 488C232 501.3 242.7 512 256 512 269.3 512 280 501.3 280 488L280 448 336 448 336 488C336 501.3 346.7 512 360 512 373.3 512 384 501.3 384 488L384 448C419.3 448 448 419.3 448 384L488 384C501.3 384 512 373.3 512 360 512 346.7 501.3 336 488 336L448 336 448 280 488 280C501.3 280 512 269.3 512 256 512 242.7 501.3 232 488 232L448 232 448 176 488 176C501.3 176 512 165.3 512 152 512 138.7 501.3 128 488 128L448 128C448 92.7 419.3 64 384 64L384 24C384 10.7 373.3 0 360 0 346.7 0 336 10.7 336 24L336 64 280 64 280 24C280 10.7 269.3 0 256 0 242.7 0 232 10.7 232 24L232 64 176 64 176 24ZM336 172C347 172 356 181 356 192L356 320C356 331 347 340 336 340 325 340 316 331 316 320L316 192C316 181 325 172 336 172ZM226.3 184 282.3 312C286.7 322.1 282.1 333.9 272 338.3 261.9 342.7 250.1 338.1 245.7 328L240.4 316 175.6 316 170.3 328C165.9 338.1 154.1 342.7 144 338.3 133.9 333.9 129.3 322.1 133.7 312L189.7 184C192.9 176.7 200.1 172 208 172 215.9 172 223.1 176.7 226.3 184L226.3 184ZM208 241.9 193.1 276 222.9 276 208 241.9 208 241.9Z" class="MsftOfcThm_Accent2_Fill_v2" fill="#FF5A47"/></svg>