<svg viewBox="0 0 512.1 448.1" xmlns="http://www.w3.org/2000/svg" xmlns:xlink="http://www.w3.org/1999/xlink" id="Layer_1" overflow="hidden"><style>
.MsftOfcThm_Accent2_Fill_v2 {
 fill:#FF5A47; 
}
</style>
<path d="M256 75.9 241 55.1C216 20.5 175.9 0 133.1 0 59.6 0 0 59.6 0 133.1L0 135.7C0 159.3 6.2 183.7 16.6 208L122.6 208C125.8 208 128.7 206.1 130 203.1L161.8 126.8C165.5 118 174.1 112.2 183.6 112 193.1 111.8 201.9 117.4 205.8 126.1L257.1 240 298.5 157.2C302.6 149.1 310.9 143.9 320 143.9 329.1 143.9 337.4 149 341.5 157.2L364.7 203.5C366.1 206.2 368.8 207.9 371.9 207.9L495.5 207.9C506 183.6 512.1 159.2 512.1 135.6L512.1 133C512 59.6 452.4 2.84217e-14 378.9 2.84217e-14 336.2 2.84217e-14 296 20.5 271 55.1L256 75.8 256 75.9ZM469.6 256 371.8 256C350.6 256 331.2 244 321.7 225L320 221.6 277.5 306.7C273.4 315 264.8 320.2 255.5 320 246.2 319.8 237.9 314.3 234.1 305.9L184.8 196.4 174.3 221.6C165.6 242.5 145.2 256.1 122.6 256.1L42.4 256.1C89.6 329.9 165.4 397.8 212.8 434 225.2 443.4 240.4 448.1 255.9 448.1 271.4 448.1 286.7 443.5 299 434 346.6 397.7 422.4 329.8 469.6 256Z" class="MsftOfcThm_Accent2_Fill_v2" fill="#FF5A47"/></svg>