<svg viewBox="0 0 512 544" xmlns="http://www.w3.org/2000/svg" xmlns:xlink="http://www.w3.org/1999/xlink" id="Layer_1" overflow="hidden"><style>
.MsftOfcThm_Accent2_Fill_v2 {
 fill:#FF5A47; 
}
</style>
<path d="M240 0C293.02 0 336 42.98 336 96 336 149.02 293.02 192 240 192 186.98 192 144 149.02 144 96 144 42.98 186.98 0 240 0ZM0 336C0 265.9 47 204.6 117.1 171.1 142.4 212.4 188 240 240 240 295.7 240 344.1 208.3 368 162 383.8 150.7 403.1 144 424 144L443.5 144C453.9 144 461.5 153.8 459 163.9L441.9 232.2C451.8 244.6 460.1 257.9 466.3 272L488 272C501.3 272 512 282.7 512 296L512 408C512 421.3 501.3 432 488 432L448 432C431.5 454 409.5 471.6 384 482.7L384 512C384 529.7 369.7 544 352 544L319 544C304.7 544 292.2 534.5 288.2 520.8L281.1 496 198.8 496 191.7 520.8C187.8 534.5 175.3 544 161 544L128 544C110.3 544 96 529.7 96 512L96 482.7C39.5 458 0 401.6 0 336ZM376 352C389.25 352 400 341.25 400 328 400 314.75 389.25 304 376 304 362.75 304 352 314.75 352 328 352 341.25 362.75 352 376 352Z" class="MsftOfcThm_Accent2_Fill_v2" fill="#FF5A47"/></svg>