<svg viewBox="0 0 575.97 495.98" xmlns="http://www.w3.org/2000/svg" xmlns:xlink="http://www.w3.org/1999/xlink" id="Layer_1" overflow="hidden"><style>
.MsftOfcThm_Accent2_Fill_v2 {
 fill:#FF5A47; 
}
</style>
<path d="M302.28 3.38C293.28-1.12 282.68-1.12 273.68 3.38L17.68 131.38C1.88 139.28-4.52 158.48 3.38 174.28 11.28 190.08 30.48 196.48 46.28 188.58L287.98 67.78 529.68 188.58C545.48 196.48 564.68 190.08 572.58 174.28 580.48 158.48 574.08 139.28 558.28 131.38L302.28 3.38 302.28 3.38ZM287.98 287.98C318.91 287.98 343.98 262.91 343.98 231.98 343.98 201.05 318.91 175.98 287.98 175.98 257.05 175.98 231.98 201.05 231.98 231.98 231.98 262.91 257.05 287.98 287.98 287.98ZM287.98 335.98C234.98 335.98 191.98 378.98 191.98 431.98L191.98 463.98C191.98 481.68 206.28 495.98 223.98 495.98L351.98 495.98C369.68 495.98 383.98 481.68 383.98 463.98L383.98 431.98C383.98 378.98 340.98 335.98 287.98 335.98ZM159.98 271.98C159.98 245.47 138.49 223.98 111.98 223.98 85.47 223.98 63.98 245.47 63.98 271.98 63.98 298.49 85.47 319.98 111.98 319.98 138.49 319.98 159.98 298.49 159.98 271.98ZM511.98 271.98C511.98 245.47 490.49 223.98 463.98 223.98 437.47 223.98 415.98 245.47 415.98 271.98 415.98 298.49 437.47 319.98 463.98 319.98 490.49 319.98 511.98 298.49 511.98 271.98ZM111.98 351.98C67.78 351.98 31.98 387.78 31.98 431.98L31.98 465.08C31.98 482.08 45.78 495.98 62.88 495.98L150.68 495.98C146.38 486.18 143.98 475.38 143.98 463.98L143.98 415.98C143.98 397.58 147.48 379.98 153.78 363.78 141.58 356.28 127.28 351.98 111.98 351.98L111.98 351.98ZM425.38 495.98 513.18 495.98C530.18 495.98 544.08 482.18 544.08 465.08L544.08 431.98C544.08 387.78 508.28 351.98 464.08 351.98 448.78 351.98 434.48 356.28 422.28 363.78 428.58 379.98 432.08 397.58 432.08 415.98L432.08 463.98C432.08 475.38 429.68 486.18 425.38 495.98L425.38 495.98Z" class="MsftOfcThm_Accent2_Fill_v2" fill="#FF5A47"/></svg>